<svg width="28.418945" height="23.426880" viewBox="0 0 28.4189 23.4269" fill="none" xmlns="http://www.w3.org/2000/svg" xmlns:xlink="http://www.w3.org/1999/xlink">
	<desc>
			Created with Pixso.
	</desc>
	<defs/>
	<path id="Vector" d="M11.33 16.06C10.37 16.33 9.65 17.01 9.29 17.46C9.14 17.66 9.07 17.98 8.95 18.19C8.9 18.29 8.2 19.64 7.57 20.04C6.88 20.48 6.25 20.58 5.92 21.27C5.78 21.55 5.72 21.85 5.77 22.14C5.83 22.59 6.12 23.01 6.72 23.27C7.71 23.7 11.27 23.31 13.26 20.85C13.84 20.26 14.09 19.41 14.19 18.63C14.41 17.01 12.91 15.62 11.33 16.06Z" fill="#32ABF2" fill-opacity="1.000000" fill-rule="nonzero"/>
	<path id="Vector" d="M8.98 16.09C9.01 16.05 9.04 16.01 9.07 15.96C9.11 15.87 9.16 15.78 9.21 15.69C8.49 15.22 7.45 14.4 7.4 14.37L7.33 14.31L7.33 14.31C7.26 14.25 7.19 14.2 7.12 14.14C6.97 14.18 6.83 14.22 6.69 14.27C5.82 14.6 5.24 15.18 4.83 15.62C4.69 15.77 4.58 15.9 4.47 16C3.88 16.57 3.23 16.9 2.95 17.02C2.89 17.06 2.83 17.09 2.78 17.13C1.74 17.76 1.8 18.76 1.91 19.15C2.03 19.53 2.46 20.57 3.91 20.54C5.04 20.52 6.27 19.92 6.77 19.65C6.77 19.65 8.87 18.31 9.65 16.69C9.65 16.69 9.38 16.46 8.98 16.09Z" fill="#32ABF2" fill-opacity="1.000000" fill-rule="nonzero"/>
	<path id="Vector" d="M5.82 12.52C5.55 12.16 5.31 11.81 5.14 11.55C5.08 11.44 5.02 11.35 4.97 11.27C4.77 11.32 4.53 11.41 4.25 11.55C3.6 11.88 2.93 12.06 2.53 11.91C2.13 11.76 1.26 11.36 0.64 11.81C0.02 12.25 -0.18 13.06 0.16 13.67C0.46 14.18 1.22 15 2.09 15.33C2.09 15.33 4.07 16.28 6.35 14.3C8.32 12.6 6.68 12.51 5.82 12.52Z" fill="#32ABF2" fill-opacity="1.000000" fill-rule="nonzero"/>
	<path id="Vector" d="M23.77 9.56C23.77 14.84 19.49 19.13 14.2 19.13C8.92 19.13 4.64 14.84 4.64 9.56C4.64 4.28 8.92 0 14.2 0C19.49 0 23.77 4.28 23.77 9.56Z" fill="#32ABF2" fill-opacity="1.000000" fill-rule="evenodd"/>
	<path id="Vector" d="M17.08 16.06C18.04 16.33 18.76 17.01 19.12 17.46C19.27 17.66 19.34 17.98 19.46 18.19C19.51 18.29 20.21 19.64 20.84 20.04C21.53 20.48 22.16 20.58 22.49 21.27C22.63 21.55 22.68 21.85 22.64 22.14C22.58 22.59 22.29 23.01 21.69 23.27C20.7 23.7 17.13 23.31 15.15 20.85C14.57 20.26 14.32 19.41 14.21 18.63C14 17.01 15.5 15.62 17.08 16.06Z" fill="#32ABF2" fill-opacity="1.000000" fill-rule="nonzero"/>
	<path id="Vector" d="M19.43 16.09C19.4 16.05 19.37 16.01 19.34 15.96C19.29 15.87 19.25 15.78 19.19 15.69C19.92 15.22 20.96 14.4 21.01 14.37L21.08 14.31L21.08 14.31C21.15 14.25 21.21 14.2 21.28 14.14C21.43 14.18 21.58 14.22 21.72 14.27C22.58 14.6 23.16 15.18 23.57 15.62C23.71 15.77 23.83 15.9 23.94 16C24.53 16.57 25.18 16.9 25.46 17.02C25.51 17.06 25.57 17.09 25.63 17.13C26.66 17.76 26.61 18.76 26.49 19.15C26.38 19.53 25.95 20.57 24.49 20.54C23.37 20.52 22.14 19.92 21.64 19.65C21.64 19.65 19.54 18.31 18.76 16.69C18.76 16.69 19.03 16.46 19.43 16.09Z" fill="#32ABF2" fill-opacity="1.000000" fill-rule="nonzero"/>
	<path id="Vector" d="M22.59 12.52C22.86 12.16 23.09 11.81 23.26 11.55C23.33 11.44 23.39 11.35 23.43 11.27C23.63 11.32 23.88 11.41 24.16 11.55C24.81 11.88 25.48 12.06 25.88 11.91C26.27 11.76 27.15 11.36 27.77 11.81C28.39 12.25 28.59 13.06 28.25 13.67C27.95 14.18 27.19 15 26.32 15.33C26.32 15.33 24.34 16.28 22.06 14.3C20.09 12.6 21.73 12.51 22.59 12.52Z" fill="#32ABF2" fill-opacity="1.000000" fill-rule="nonzero"/>
	<path id="Vector" d="M11.75 9.11C11.75 9.7 11.37 10.18 10.91 10.18C10.44 10.18 10.06 9.7 10.06 9.11C10.06 8.52 10.44 8.04 10.91 8.04C11.37 8.04 11.75 8.52 11.75 9.11Z" fill="#34056F" fill-opacity="1.000000" fill-rule="evenodd"/>
	<path id="Vector" d="M11.24 8.65C11.24 8.86 11.07 9.03 10.86 9.03C10.65 9.03 10.48 8.86 10.48 8.65C10.48 8.44 10.65 8.27 10.86 8.27C11.07 8.27 11.24 8.44 11.24 8.65Z" fill="#F9F9F9" fill-opacity="1.000000" fill-rule="nonzero"/>
	<path id="Vector" d="M18.34 9.11C18.34 9.7 17.97 10.18 17.5 10.18C17.04 10.18 16.66 9.7 16.66 9.11C16.66 8.52 17.04 8.04 17.5 8.04C17.97 8.04 18.34 8.52 18.34 9.11Z" fill="#34056F" fill-opacity="1.000000" fill-rule="evenodd"/>
	<path id="Vector" d="M17.84 8.65C17.84 8.86 17.67 9.03 17.46 9.03C17.25 9.03 17.08 8.86 17.08 8.65C17.08 8.44 17.25 8.27 17.46 8.27C17.67 8.27 17.84 8.44 17.84 8.65Z" fill="#F9F9F9" fill-opacity="1.000000" fill-rule="nonzero"/>
	<path id="Vector" d="M15.75 12.41C15.67 13.38 15.35 14.61 14.2 14.61C13.64 14.61 13.28 14.31 13.04 13.89C13.33 13.28 14.08 12.2 15.75 12.41Z" fill="#EB5A55" fill-opacity="1.000000" fill-rule="nonzero"/>
	<path id="Vector" d="M15.75 12.41C14.08 12.2 13.33 13.28 13.04 13.89C12.49 12.91 12.66 11.27 12.66 11.27C13.12 11.47 14.2 11.43 14.2 11.43C14.2 11.43 15.29 11.47 15.75 11.27C15.75 11.27 15.81 11.78 15.75 12.41Z" fill="#79292A" fill-opacity="1.000000" fill-rule="nonzero"/>
</svg>
