<svg width="48.000000" height="48.000000" viewBox="0 0 48 48" fill="none" xmlns="http://www.w3.org/2000/svg" xmlns:xlink="http://www.w3.org/1999/xlink">
	<desc>
			Created with Pixso.
	</desc>
	<defs>
		<clipPath id="clip2499_50436">
			<rect id="Social icon" rx="-0.166667" width="17.666666" height="17.666666" transform="translate(14.166667 15.166667)" fill="white" fill-opacity="0"/>
		</clipPath>
	</defs>
	<rect id="Frame 122" rx="0.500000" width="47.000000" height="47.000000" transform="translate(0.500000 0.500000)" fill="#FFFFFF" fill-opacity="1.000000"/>
	<rect id="Social icon" rx="-0.166667" width="17.666666" height="17.666666" transform="translate(14.166667 15.166667)" fill="#FFFFFF" fill-opacity="0"/>
	<g clip-path="url(#clip2499_50436)">
		<path id="Vector" d="M31.82 24.2C31.82 23.59 31.77 22.98 31.66 22.37L23.18 22.37L23.18 25.84L28.04 25.84C27.83 26.96 27.19 27.95 26.24 28.57L26.24 30.82L29.14 30.82C30.84 29.26 31.82 26.94 31.82 24.2Z" fill="#4285F4" fill-opacity="1.000000" fill-rule="nonzero"/>
		<path id="Vector" d="M23.18 33C25.6 33 27.65 32.2 29.14 30.82L26.24 28.57C25.43 29.12 24.39 29.43 23.18 29.43C20.83 29.43 18.84 27.85 18.13 25.72L15.13 25.72L15.13 28.04C16.66 31.08 19.77 33 23.18 33Z" fill="#34A853" fill-opacity="1.000000" fill-rule="nonzero"/>
		<path id="Vector" d="M18.12 25.72C17.74 24.6 17.74 23.39 18.12 22.27L18.12 19.96L15.13 19.96C13.86 22.5 13.86 25.5 15.13 28.04L18.12 25.72Z" fill="#FBBC04" fill-opacity="1.000000" fill-rule="nonzero"/>
		<path id="Vector" d="M23.18 18.56C24.46 18.54 25.7 19.02 26.63 19.91L29.2 17.34C27.57 15.81 25.41 14.97 23.18 15C19.77 15 16.66 16.91 15.13 19.96L18.12 22.27C18.83 20.14 20.83 18.56 23.18 18.56Z" fill="#EA4335" fill-opacity="1.000000" fill-rule="nonzero"/>
	</g>
</svg>
